# xmcd
#
# Track frame offsets:
#	150
#	11762
#	22960
#	33595
#	44302
#	54572
#	66182
#	76630
#	88295
#	97537
#
# Disc length: 1471 seconds
#
# Revision: 0
# Processed by: cddbd v1.4PL0 Copyright (c) Steve Scherf et al.
# Submitted via: dBpowerAMP V4.0
#
DISCID=6e05bd0a
DTITLE=Waylon Jennings - The One And Only
DYEAR=1967
DGENRE=Classical Country
TTITLE0=Yes, Virginia
TTITLE1=Dream Baby (How Long Must I Dream)
TTITLE2=You Beat All I Ever Saw
TTITLE3=She Loves Me (She Don't Love You)
TTITLE4=It's All Over Now
TTITLE5=Born To Love You
TTITLE6=Down Came To The World
TTITLE7=The Dark Side Of Fame
TTITLE8=John's Back In Town
TTITLE9=Listen, They're Playing My Song
EXTD=
EXTT0=
EXTT1=
EXTT2=
EXTT3=
EXTT4=
EXTT5=
EXTT6=
EXTT7=
EXTT8=
EXTT9=
PLAYORDER=
